<svg width="256" height="24" viewBox="0 0 256 24" fill="none" xmlns="http://www.w3.org/2000/svg">
<path d="M0.024 11.672C0.024 9.45333 0.482667 7.48 1.4 5.752C2.33867 4.00267 3.66133 2.648 5.368 1.688C7.07467 0.706666 9.03733 0.216 11.256 0.216C14.072 0.216 16.44 0.973333 18.36 2.488C20.28 3.98133 21.5173 6.01867 22.072 8.6H15.32C14.9147 7.74667 14.3493 7.096 13.624 6.648C12.92 6.2 12.0987 5.976 11.16 5.976C9.70933 5.976 8.54667 6.49867 7.672 7.544C6.81867 8.568 6.392 9.944 6.392 11.672C6.392 13.4213 6.81867 14.8187 7.672 15.864C8.54667 16.888 9.70933 17.4 11.16 17.4C12.0987 17.4 12.92 17.176 13.624 16.728C14.3493 16.28 14.9147 15.6293 15.32 14.776H22.072C21.5173 17.3573 20.28 19.4053 18.36 20.92C16.44 22.4133 14.072 23.16 11.256 23.16C9.03733 23.16 7.07467 22.68 5.368 21.72C3.66133 20.7387 2.33867 19.384 1.4 17.656C0.482667 15.9067 0.024 13.912 0.024 11.672ZM31.314 18.2H38.322V23H25.042V0.439999H31.314V18.2ZM47.0328 5.464V9.144H54.2328V13.912H47.0328V17.976H55.1928V23H40.7608V0.439999H55.1928V5.464H47.0328ZM72.564 19.32H64.564L63.348 23H56.756L64.98 0.439999H72.212L80.404 23H73.78L72.564 19.32ZM70.996 14.52L68.564 7.224L66.164 14.52H70.996ZM103.344 23H97.0723L88.7203 10.392V23H82.4483V0.439999H88.7203L97.0723 13.208V0.439999H103.344V23ZM113.189 0.439999V23H106.917V0.439999H113.189ZM137.657 23H131.385L123.033 10.392V23H116.761V0.439999H123.033L131.385 13.208V0.439999H137.657V23ZM155.63 7.864C155.267 7.26667 154.766 6.808 154.126 6.488C153.507 6.168 152.771 6.008 151.918 6.008C150.339 6.008 149.091 6.52 148.174 7.544C147.278 8.568 146.83 9.944 146.83 11.672C146.83 13.6133 147.31 15.096 148.27 16.12C149.251 17.1227 150.67 17.624 152.526 17.624C154.723 17.624 156.291 16.632 157.23 14.648H150.926V10.136H162.638V16.216C162.147 17.4107 161.422 18.5307 160.462 19.576C159.523 20.6213 158.328 21.4853 156.878 22.168C155.427 22.8293 153.774 23.16 151.918 23.16C149.656 23.16 147.651 22.68 145.902 21.72C144.174 20.7387 142.83 19.384 141.87 17.656C140.931 15.9067 140.462 13.912 140.462 11.672C140.462 9.45333 140.931 7.48 141.87 5.752C142.83 4.00267 144.174 2.648 145.902 1.688C147.63 0.706666 149.624 0.216 151.886 0.216C154.723 0.216 157.07 0.898666 158.926 2.264C160.782 3.62933 161.934 5.496 162.382 7.864H155.63Z" fill="#5C7489"/>
<path d="M171.72 0.439999V23H165.448V0.439999H171.72ZM196.188 23H189.916L181.564 10.392V23H175.292V0.439999H181.564L189.916 13.208V0.439999H196.188V23ZM208.689 0.439999C211.057 0.439999 213.126 0.919999 214.897 1.88C216.689 2.81867 218.065 4.14133 219.025 5.848C219.985 7.55467 220.465 9.50667 220.465 11.704C220.465 13.88 219.974 15.8213 218.993 17.528C218.033 19.2347 216.657 20.5787 214.865 21.56C213.094 22.52 211.035 23 208.689 23H199.761V0.439999H208.689ZM208.209 17.464C210.043 17.464 211.483 16.9627 212.529 15.96C213.574 14.9573 214.097 13.5387 214.097 11.704C214.097 9.848 213.574 8.41867 212.529 7.416C211.483 6.392 210.043 5.88 208.209 5.88H206.033V17.464H208.209ZM229.564 0.439999V23H223.292V0.439999H229.564ZM247.408 19.32H239.408L238.192 23H231.6L239.824 0.439999H247.056L255.248 23H248.624L247.408 19.32ZM245.84 14.52L243.408 7.224L241.008 14.52H245.84Z" fill="#1CD5BD"/>
</svg>
